<?xml version="1.0" encoding="utf-8"?>
<!-- Generator: Adobe Illustrator 14.0.0, SVG Export Plug-In . SVG Version: 6.00 Build 43363)  -->
<!DOCTYPE svg PUBLIC "-//W3C//DTD SVG 1.1//EN" "http://www.w3.org/Graphics/SVG/1.1/DTD/svg11.dtd">
<svg version="1.1" id="Layer_1" xmlns="http://www.w3.org/2000/svg" xmlns:xlink="http://www.w3.org/1999/xlink" x="0px" y="0px"
	 width="612px" height="792px" viewBox="0 0 500 500" enable-background="new 0 0 500 600" xml:space="preserve">
<g>
	<linearGradient id="SVGID_1_" gradientUnits="userSpaceOnUse" x1="254.228" y1="404.3838" x2="437.6123" y2="404.3838">
		<stop  offset="0" style="stop-color:#3EC1C7"/>
		<stop  offset="0.181" style="stop-color:#3BB8BE"/>
		<stop  offset="0.507" style="stop-color:#35A6AC"/>
		<stop  offset="0.938" style="stop-color:#26888D"/>
		<stop  offset="1" style="stop-color:#248388"/>
	</linearGradient>
	<path fill-rule="evenodd" clip-rule="evenodd" fill="url(#SVGID_1_)" d="M384.602,365.334c6.062-3.572,14.741,18.062,15.095,32.345
		c0.479,19.422-11.49,61.211,4.312,69.005c23.745,11.71,45.743-61.348,25.877-75.474c-10.873,0.564-7.541,24.624-19.408,17.251
		c0.919-12.548,8.879-14.046,10.782-23.72c8.941-45.427-77.17-92.71-105.663-43.128c24.46,3.574,49.609,29.301,51.754,32.346
		c2.144,3.045,9.717,17.801,4.312,19.407c-5.403,1.607-32.456-50.763-66.848-45.284c-10.824,1.724-41.742,37.553-32.346,56.065
		c6.97,13.733,45.752,6.049,47.441,30.19c0.884,12.649-5.775,25.716-21.565,17.251c38.731-10.684-17.678-47.457-36.658-32.346
		c-9.459,7.53-9.632,55.314-2.156,62.535c8.861,8.561,66.541,8.04,75.473,2.156c9.295-6.122,2.089-17.371,10.783-23.721
		c7.521,6.621,1.844,17.744,8.625,21.564c34.194,19.263,50.614-41.965,30.189-56.066c-4.549-3.14-16.597,0.555-19.408,0
		c-17.98-3.544-39.336-25.87-45.283-38.814c39.701,35.391,73.317,26.234,71.868,13.106
		C390.327,386.877,385.332,379.722,384.602,365.334z"/>
	<linearGradient id="SVGID_2_" gradientUnits="userSpaceOnUse" x1="184.0029" y1="409.1914" x2="281.7222" y2="409.1914">
		<stop  offset="0" style="stop-color:#94D4C9"/>
		<stop  offset="0.2127" style="stop-color:#7BCDC8"/>
		<stop  offset="0.4953" style="stop-color:#5EC6C8"/>
		<stop  offset="0.7635" style="stop-color:#48C2C7"/>
		<stop  offset="1" style="stop-color:#3EC1C7"/>
	</linearGradient>
	<path fill-rule="evenodd" clip-rule="evenodd" fill="url(#SVGID_2_)" d="M216.403,442.964c11.166-4.504-6.027-12.094,0-21.563
		c1.39-2.186,21.37-9.925,28.033-6.469c11.801,6.119,2.999,63.354-8.626,64.691c-45.895,5.283-73.38-67.861-30.189-103.507
		c3.419,13.694,24.609,17.512,32.346,4.312c-4.469-6.612-16.036,5.046-21.564-2.156c-17.941-35.054,53.421-49.997,64.692-32.346
		c4.795,7.51-19.243,51.53-25.877,56.066C235.052,415.782,189.031,408.95,216.403,442.964z"/>
	<path fill="#3EC1C7" d="M325.557,321.388c-6.748,19.127-40.301,11.449-64.691,12.938
		C270.915,315.047,306.087,307.716,325.557,321.388z"/>

	

</g>
</svg>
